# AST/ASF file generated using VICON BodyLanguage
# -----------------------------------------------
:version 1.10
:name VICON
:units
  mass 1.0
  length 0.45
  angle deg
:documentation
   .ast/.asf automatically generated from VICON data using
   VICON BodyBuilder and BodyLanguage model FoxedUp or BRILLIANT.MOD
:root
   order TX TY TZ RX RY RZ
   axis XYZ
   position 0 0 0  
   orientation 0 0 0 
:bonedata
  begin
     id 1 
     name lhipjoint
     direction 0.541323 -0.757556 0.364798 
     length 2.47576 
     axis 0 0 0  XYZ
  end
  begin
     id 2 
     name lfemur
     direction 0.34202 -0.939693 0  
     length 7.46493  
     axis 0 0 20  XYZ
    dof rx ry rz
    limits (-160.0 20.0)
           (-70.0 70.0)
           (-60.0 70.0)
  end
  begin
     id 3 
     name ltibia
     direction 0.34202 -0.939693 0   
     length 7.73805   
     axis 0 0 20   XYZ
    dof rx
    limits (-10.0 170.0)
  end
  begin
     id 4 
     name lfoot
     direction 0.107174 -0.294458 0.949636   
     length 2.25864   
     axis -90 7.62852e-016 20   XYZ
    dof rx rz
    limits (-45.0 90.0)
           (-70.0 20.0)
  end
  begin
     id 5 
     name ltoes
     direction 1.53606e-011 -4.21934e-011 1   
     length 1.12451   
     axis -90 7.62852e-016 20   XYZ
    dof rx
    limits (-90.0 20.0)
  end
  begin
     id 6 
     name rhipjoint
     direction -0.524745 -0.766967 0.36933   
     length 2.44538  
     axis 0 0 0  XYZ 
  end
  begin
     id 7 
     name rfemur
     direction -0.34202 -0.939693 0   
     length 7.61604   
     axis 0 0 -20   XYZ
    dof rx ry rz
    limits (-160.0 20.0)
           (-70.0 70.0)
           (-70.0 60.0)
  end
  begin
     id 8 
     name rtibia
     direction -0.34202 -0.939693 0   
     length 7.61056   
     axis 0 0 -20   XYZ
    dof rx
    limits (-10.0 170.0)
 end
 begin
     id 9 
     name rfoot
     direction -0.12616 -0.346623 0.929482   
     length 2.46372  
     axis -90 -7.62852e-016 -20   XYZ
    dof rx rz
    limits (-45.0 90.0)
           (-20.0 70.0)
  end
  begin
     id 10 
     name rtoes
     direction -1.53531e-011 -4.22004e-011 1   
     length 1.21611   
     axis -90 -7.62852e-016 -20   XYZ
    dof rx
    limits (-90.0 20.0)
  end
  begin
     id 11 
     name lowerback
     direction -0.000778023 0.997293 -0.0735223   
     length 2.06139   
     axis 0 0 0   XYZ
    dof rx ry rz
    limits (-20.0 45.0)
           (-30.0 30.0)
           (-30.0 30.0)
  end
  begin
     id 12 
     name upperback
     direction 0.0222598 0.999722 -0.0078355   
     length 2.06383   
     axis 0 0 0   XYZ
    dof rx ry rz
    limits (-20.0 45.0)
           (-30.0 30.0)
           (-30.0 30.0)
  end
  begin
     id 13 
     name thorax
     direction 0.0219654 0.999405 0.0265994   
     length 2.07163   
     axis 0 0 0   XYZ
    dof rx ry rz
    limits (-20.0 45.0)
           (-30.0 30.0)
           (-30.0 30.0)
  end
  begin
     id 14 
     name lowerneck
     direction 0.0213282 0.988147 0.15202   
     length 1.75969   
     axis 0 0 0   XYZ
    dof rx ry rz
    limits (-20.0 45.0)
           (-30.0 30.0)
           (-30.0 30.0)
  end
  begin
     id 15 
     name upperneck
     direction -0.0546456 0.982624 -0.177379   
     length 1.79244   
     axis 0 0 0   XYZ
    dof rx ry rz
    limits (-20.0 45.0)
           (-30.0 30.0)
           (-30.0 30.0)
  end
  begin
     id 16
     name head
     direction -0.0199987 0.996855 -0.076686  
     length 1.80555  
     axis 0 0 0   XYZ
    dof rx ry rz
    limits (-20.0 45.0)
           (-30.0 30.0)
           (-30.0 30.0)
  end
  begin
     id 17 
     name lclavicle
     direction 0.929565 0.363219 -0.063096  
     length 3.55722  
     axis 0 0 0   XYZ
    dof ry rz
    limits (-20.0 10.0)
           (0.0 20.0)
  end
  begin
     id 18 
     name lhumerus
     direction 1 -4.48993e-011 -2.36203e-027   
     length 4.92785   
     axis 180 -30 -90   XYZ
    dof rx ry rz
    limits (-60.0 90.0)
           (-90.0 90.0)
           (-90.0 90.0)
  end
  begin
     id 19
     name lradius
     direction 1 -4.48947e-011 2.02997e-027   
     length 3.44052   
     axis 180 -30 -90   XYZ
    dof rx
    limits (-10.0 170.0)
  end
  begin
     id 20
     name lwrist
     direction 1 -4.48962e-011 1.45991e-027   
     length 1.72026   
     axis 1.49639e-024 90 90   XYZ
    dof ry
    limits (-180.0 0.0)
 end
  begin
     id 21 
     name lhand
     direction 1 -4.48984e-011 2.91906e-027   
     length 0.654326   
     axis -1.863e-015 90 90   XYZ
    dof rx rz
    limits (-90.0 90.0)
           (-45.0 45.0)
  end
  begin
     id 22 
     name lfingers
     direction 1 -4.48961e-011 5.83968e-027   
     length 0.527534   
     axis -3.72598e-015 90 90   XYZ
    dof rx
    limits (0.0 90.0)
  end
  begin
     id 23
     name lthumb
     direction 0.707107 -6.34963e-011 0.707107   
     length 0.757437   
     axis -90 45 -6.68868e-015   XYZ
    dof rx rz
    limits (-45.0 45.0)
           (-45.0 45.0)
  end
  begin
     id 24 
     name rclavicle
     direction -0.902944 0.422599 -0.0781198   
     length 3.54432  
     axis 0 0 0   XYZ 
    dof ry rz
    limits (-10.0 20.0)
           (-20.0 0.0)
  end
  begin
     id 25 
     name rhumerus
     direction -1 -4.48953e-011 -4.75835e-028  
     length 5.09181   
     axis 180 30 90   XYZ
    dof rx ry rz
    limits (-90.0 60.0)
           (-90.0 90.0)
           (-90.0 90.0)
  end
  begin
     id 26 
     name rradius
     direction -1 -4.48986e-011 -3.25889e-027   
     length 3.49865   
     axis 180 30 90   XYZ
    dof rx
    limits (-10.0 170.0)
  end
  begin
     id 27 
     name rwrist
     direction -1 -4.48963e-011 1.45989e-027   
     length 1.74933   
     axis 1.49639e-024 -90 -90   XYZ
    dof ry
    limits (-180.0 0.0)
  end
  begin
     id 28
     name rhand
     direction -1 -4.49003e-011 2.91844e-027   
     length 0.66641   
     axis -1.863e-015 -90 -90   XYZ
    dof rx rz
    limits (-90.0 90.0)
           (-45.0 45.0)
  end
  begin
     id 29
     name rfingers
     direction -1 -4.48973e-011 5.83886e-027   
     length 0.537277   
     axis -3.72598e-015 -90 -90   XYZ
    dof rx
    limits (0.0 90.0)
  end
  begin
     id 30
     name rthumb
     direction -0.707107 -6.34976e-011 0.707107   
     length 0.771425   
     axis -90 -45 6.68868e-015   XYZ
    dof rx rz
    limits (-45.0 45.0)
           (-45.0 45.0)
  end
:hierarchy
  begin
    root lhipjoint rhipjoint lowerback
    lhipjoint lfemur
    lfemur ltibia
    ltibia lfoot
    lfoot ltoes
    rhipjoint rfemur
    rfemur rtibia
    rtibia rfoot
    rfoot rtoes
    lowerback upperback
    upperback thorax
    thorax lowerneck lclavicle rclavicle
    lowerneck upperneck
    upperneck head
    lclavicle lhumerus
    lhumerus lradius
    lradius lwrist
    lwrist lhand lthumb
    lhand lfingers
    rclavicle rhumerus
    rhumerus rradius
    rradius rwrist
    rwrist rhand rthumb
    rhand rfingers
  end

#!OML:ASF H:\LiuWeirdWalks\Patient Classification 1\Patient 1\Session 1\male.ASF
:FULLY-SPECIFIED
:DEGREES
42
root -0.0915839 17.8724 -26.8509 3.77631 43.6496 1.45475
lowerback 2.75034 7.01738 4.25884
upperback -1.90057 9.55641 0.202201
thorax -2.83721 4.68024 -2.57476
lowerneck 6.75475 18.1882 13.7202
upperneck 3.2681 25.7528 -12.3745
head 3.25411 13.0609 -4.77749
rclavicle 1.88845e-013 2.38542e-015
rhumerus -36.2096 -13.867 -73.3097
rradius 23.8762
rwrist -2.73835
rhand -12.8918 2.12025
rfingers 7.12502
rthumb 13.1975 -27.442
lclavicle 1.88845e-013 2.38542e-015
lhumerus -34.1177 10.6861 79.9197
lradius 28.5468
lwrist 5.79197
lhand -11.502 1.17596
lfingers 7.12502
lthumb 14.5369 30.6466
rfemur 3.00145 -16.5589 13.6129
rtibia 22.9726
rfoot -20.8075 -44.5658
rtoes 1.78245
lfemur -16.6099 -13.4504 -13.8228
ltibia 26.2912
lfoot -11.8128 -5.37513
ltoes -11.0509
43
root -0.0905385 17.8734 -26.8501 3.73683 43.5191 1.39598
lowerback 2.80217 7.10658 4.31405
upperback -1.92958 9.67824 0.102455
thorax -2.86168 4.73776 -2.71657
lowerneck 6.85003 18.105 14.0331
upperneck 3.07055 25.6524 -12.4554
head 3.21607 13.0164 -4.86016
rclavicle -5.81445e-014 -6.36111e-015
rhumerus -36.3468 -14.3768 -73.1116
rradius 23.8271
rwrist -2.56163
rhand -12.9432 2.16267
rfingers 7.12502
rthumb 13.1479 -27.4028
lclavicle -5.81445e-014 -6.36111e-015
lhumerus -33.9742 10.3069 79.9958
lradius 28.5373
lwrist 5.86789
lhand -11.4937 1.16562
lfingers 7.12502
lthumb 14.5449 30.6357
rfemur 2.99778 -16.469 13.6535
rtibia 22.9374
rfoot -20.8021 -44.525
rtoes 1.76893
lfemur -16.58 -13.3963 -13.7816
ltibia 26.2912
lfoot -11.8152 -5.2885
ltoes -11.0772
44
root -0.0888239 17.8742 -26.8487 3.71882 43.3946 1.37064
lowerback 2.85222 7.22224 4.36273
upperback -1.96609 9.83422 -0.0324876
thorax -2.88462 4.81208 -2.89151
lowerneck 6.74958 18.0013 14.3259
upperneck 3.12653 25.5157 -12.402
head 3.25933 12.9456 -4.8766
rclavicle 4.31238e-014 1.43125e-014
rhumerus -36.5305 -14.98 -72.9058
rradius 23.7863
rwrist -2.38719
rhand -12.9803 2.15987
rfingers 7.12502
rthumb 13.1122 -27.4079
lclavicle 4.31238e-014 1.43125e-014
lhumerus -33.8255 9.77696 80.0874
lradius 28.543
lwrist 5.99424
lhand -11.4684 1.14229
lfingers 7.12502
lthumb 14.5692 30.6106
rfemur 3.00114 -16.4081 13.6569
rtibia 22.907
rfoot -20.7877 -44.4624
rtoes 1.75481
lfemur -16.5408 -13.3537 -13.7702
ltibia 26.2835
lfoot -11.8151 -5.19835
ltoes -11.0947
45
root -0.0869087 17.8748 -26.8471 3.71985 43.2754 1.37498
lowerback 2.88984 7.3318 4.37832
upperback -1.99472 9.98 -0.159271
thorax -2.89918 4.8825 -3.03823
lowerneck 6.623 17.9011 14.594
upperneck 3.22751 25.3826 -12.3432
head 3.31676 12.8759 -4.8842
rclavicle -6.16605e-014 -5.96354e-015
rhumerus -36.6959 -15.5474 -72.6997
rradius 23.7387
rwrist -2.2357
rhand -13.0386 2.16417
rfingers 7.12502
rthumb 13.056 -27.4072
lclavicle -6.16605e-014 -5.96354e-015
lhumerus -33.6919 9.26569 80.1832
lradius 28.5624
lwrist 6.1044
lhand -11.3881 1.08661
lfingers 7.12502
lthumb 14.6466 30.5493
rfemur 3.00795 -16.3679 13.6298
rtibia 22.8828
rfoot -20.7654 -44.3863
rtoes 1.74139
lfemur -16.4941 -13.3208 -13.7837
ltibia 26.269
lfoot -11.8122 -5.10538
ltoes -11.0924
46
root -0.0853335 17.8756 -26.8455 3.72529 43.1626 1.38349
lowerback 2.92326 7.4161 4.3765
upperback -2.01886 10.0918 -0.261059
thorax -2.91615 4.93656 -3.149
lowerneck 6.53348 17.8121 14.8372
upperneck 3.32329 25.2693 -12.3092
head 3.36963 12.8177 -4.89812
rclavicle 3.40046e-014 -1.55052e-014
rhumerus -36.8145 -16.0104 -72.5099
rradius 23.6748
rwrist -2.13003
rhand -13.072 2.13195
rfingers 7.12502
rthumb 13.0238 -27.4415
lclavicle 3.40046e-014 -1.55052e-014
lhumerus -33.5904 8.84615 80.2675
lradius 28.5931
lwrist 6.20247
lhand -11.2515 0.984552
lfingers 7.12502
lthumb 14.7783 30.4377
rfemur 3.01088 -16.3336 13.6006
rtibia 22.8641
rfoot -20.7513 -44.3087
rtoes 1.73057
lfemur -16.4493 -13.2855 -13.7996
ltibia 26.2499
lfoot -11.8066 -5.02455
ltoes -11.085
47
root -0.0844729 17.8764 -26.8442 3.73063 43.0541 1.38601
lowerback 2.94911 7.46256 4.35436
upperback -2.03645 10.1528 -0.321109
thorax -2.93682 4.96609 -3.20451
lowerneck 6.53497 17.749 15.0213
upperneck 3.32695 25.1945 -12.3255
head 3.38503 12.7817 -4.92932
rclavicle 3.62906e-014 -1.15295e-014
rhumerus -36.8773 -16.3281 -72.3414
rradius 23.5983
rwrist -2.02008
rhand -13.1169 2.08872
rfingers 7.12502
rthumb 12.9805 -27.4875
lclavicle 3.62906e-014 -1.15295e-014
lhumerus -33.5279 8.58414 80.3396
lradius 28.6339
lwrist 6.27322
lhand -11.0822 0.856022
lfingers 7.12502
lthumb 14.9413 30.2971
rfemur 3.00492 -16.2907 13.5837
rtibia 22.8471
rfoot -20.7378 -44.2457
rtoes 1.72311
lfemur -16.4118 -13.2493 -13.8065
ltibia 26.2305
lfoot -11.7947 -4.95301
ltoes -11.0836
48
root -0.0844586 17.8773 -26.843 3.72335 42.9512 1.37169
lowerback 2.96425 7.45988 4.30723
upperback -2.037 10.1479 -0.322778
thorax -2.95385 4.96406 -3.18384
lowerneck 6.62082 17.7265 15.1215
upperneck 3.23446 25.1767 -12.3999
head 3.36334 12.7766 -4.97446
rclavicle -5.24419e-014 -5.1684e-015
rhumerus -36.8581 -16.4681 -72.2002
rradius 23.507
rwrist -1.91391
rhand -13.1605 2.0546
rfingers 7.12502
rthumb 12.9385 -27.5243
lclavicle -5.24419e-014 -5.1684e-015
lhumerus -33.5086 8.5146 80.4021
lradius 28.6914
lwrist 6.30897
lhand -10.9343 0.738162
lfingers 7.12502
lthumb 15.0837 30.1686
rfemur 2.99738 -16.229 13.5909
rtibia 22.8294
rfoot -20.7378 -44.2048
rtoes 1.72178
lfemur -16.3782 -13.2085 -13.7958
ltibia 26.2135
lfoot -11.7834 -4.89167
ltoes -11.0866
